<?xml version="1.0" encoding="UTF-8" standalone="no"?>
<!-- Created with Inkscape (http://www.inkscape.org/) -->

<svg
   xmlns:dc="http://purl.org/dc/elements/1.1/"
   xmlns:cc="http://creativecommons.org/ns#"
   xmlns:rdf="http://www.w3.org/1999/02/22-rdf-syntax-ns#"
   xmlns:svg="http://www.w3.org/2000/svg"
   xmlns="http://www.w3.org/2000/svg"
   xmlns:inkscape="http://www.inkscape.org/namespaces/inkscape"
   version="1.1"
   width="150.05"
   height="149.8625"
   id="svg10932">
  <defs
     id="defs10934">
    <inkscape:path-effect
       effect="skeletal"
       id="path-effect3057" />
    <inkscape:path-effect
       effect="skeletal"
       id="path-effect3055" />
    <filter
       color-interpolation-filters="sRGB"
       id="filter3223">
      <feFlood
         result="flood"
         flood-color="rgb(0,0,0)"
         flood-opacity="0.5"
         id="feFlood3225" />
      <feComposite
         in2="SourceGraphic"
         operator="in"
         in="flood"
         result="composite1"
         id="feComposite3227" />
      <feGaussianBlur
         result="blur"
         stdDeviation="1"
         id="feGaussianBlur3229" />
      <feOffset
         result="offset"
         dy="2"
         dx="2"
         id="feOffset3231" />
      <feComposite
         in2="offset"
         operator="over"
         in="SourceGraphic"
         result="composite2"
         id="feComposite3233" />
    </filter>
  </defs>
  <metadata
     id="metadata10937">
    <rdf:RDF>
      <cc:Work
         rdf:about="">
        <dc:format>image/svg+xml</dc:format>
        <dc:type
           rdf:resource="http://purl.org/dc/dcmitype/StillImage" />
        <dc:title></dc:title>
      </cc:Work>
    </rdf:RDF>
  </metadata>
  <g
     transform="translate(-299.975,-457.42813)"
     id="g2999"
     style="display:none">
    <path
       d="m 328.325,471.64543 c -0.3125,-0.025 -0.625,-0.0475 -0.94125,-0.0475 -7.22,0 -13.0725,5.8525 -13.0725,13.07375 0,6.67375 5.0025,12.18125 11.46375,12.975 21.96,2.6175 41.64625,12.62 56.53125,27.485 14.82,14.83875 24.81125,34.4575 27.46375,56.34 0.7075,6.55125 6.255,11.6525 12.995,11.6525 7.21875,0 13.07125,-5.8525 13.07125,-13.07125 0,-0.5 -0.0537,-0.98125 -0.11,-1.46625 C 429.07,522.48793 384.49375,478.06043 328.325,471.64543"
       id="path3001"
       style="fill:#5ab02f;fill-opacity:1;fill-rule:nonzero;stroke:none" />
    <path
       d="m 332.17625,557.10143 c 9.9475,0 18.0125,8.065 18.0125,18.0125 0,9.94875 -8.065,18.0125 -18.0125,18.0125 -9.9475,0 -18.0125,-8.06375 -18.0125,-18.0125 0,-9.9475 8.065,-18.0125 18.0125,-18.0125"
       id="path3003"
       style="fill:#1f38e2;fill-opacity:1;fill-rule:nonzero;stroke:none" />
    <path
       d="m 373.13575,534.29868 c -11.59125,-11.61375 -26.6925,-19.8 -43.53125,-22.9375 -0.72125,-0.12375 -1.4625,-0.20625 -2.22,-0.20625 -7.22,0 -13.0725,5.8525 -13.0725,13.0725 0,6.31875 4.51125,11.6075 10.47375,12.825 11.55625,2.13875 21.855,7.73625 29.8675,15.7325 7.88625,7.9025 13.44375,18.0225 15.6475,29.38375 l 0.0163,0.025 c 1.0225,6.20125 6.4075,10.9325 12.89625,10.9325 7.2175,0 13.07125,-5.8525 13.07125,-13.0725 0,-0.79375 -0.0875,-1.56125 -0.22375,-2.31375 -3.15125,-16.8 -11.335,-31.86875 -22.925,-43.44125"
       id="path3005"
       style="fill:#e42831;fill-opacity:1;fill-rule:nonzero;stroke:none" />
  </g>
  <g
     transform="translate(-299.975,-457.42813)"
     id="g3061"
     style="display:inline">
    <path
       d="m 327.375,470.75 c -7.67785,0 -13.90625,6.22713 -13.90625,13.90625 0,7.09838 5.33637,12.99827 12.21875,13.84375 21.76724,2.59452 41.27654,12.48387 56.03125,27.21875 14.69045,14.70904 24.58961,34.15399 27.21875,55.84375 0.75307,6.97317 6.64386,12.40625 13.8125,12.40625 7.67688,0 13.9375,-6.22692 13.9375,-13.90625 0,-0.57776 -0.0704,-1.09185 -0.125,-1.5625 -6.70233,-56.48708 -51.59884,-101.22811 -108.15625,-107.6875 a 0.84897042,0.84897042 0 0 0 -0.0312,0 c -0.28954,-0.0232 -0.61664,-0.0625 -1,-0.0625 z m 0,39.5625 c -7.67795,0 -13.90625,6.2283 -13.90625,13.90625 0,6.72234 4.80208,12.39002 11.15625,13.6875 11.38508,2.10707 21.54276,7.59002 29.4375,15.46875 7.76465,7.78065 13.23149,17.72707 15.40625,28.90625 0.002,0.01 -0.002,0.0213 0,0.0312 1.08919,6.60572 6.84817,11.65625 13.75,11.65625 7.67561,0 13.90625,-6.2281 13.90625,-13.90625 0,-0.85257 -0.0752,-1.67595 -0.21875,-2.46875 -3.18347,-16.97176 -11.47844,-32.18362 -23.1875,-43.875 -11.71077,-11.7335 -26.95845,-20.01804 -43.96875,-23.1875 -0.74526,-0.12787 -1.54653,-0.21875 -2.375,-0.21875 z m 4.8125,45.9375 c -10.40739,0 -18.875,8.46761 -18.875,18.875 0,10.40859 8.46946,18.84375 18.875,18.84375 10.40554,0 18.84375,-8.43694 18.84375,-18.84375 0,-10.40562 -8.43636,-18.875 -18.84375,-18.875 z"
       id="path3085"
       style="fill:#ffffff;fill-opacity:1;fill-rule:nonzero;stroke:none;filter:url(#filter3223)" />
  </g>
  <g
     transform="translate(-299.975,-457.42813)"
     id="g11008"
     style="display:inline">
    <path
       d="m 328.325,471.64543 c -0.3125,-0.025 -0.625,-0.0475 -0.94125,-0.0475 -7.22,0 -13.0725,5.8525 -13.0725,13.07375 0,6.67375 5.0025,12.18125 11.46375,12.975 21.96,2.6175 41.64625,12.62 56.53125,27.485 14.82,14.83875 24.81125,34.4575 27.46375,56.34 0.7075,6.55125 6.255,11.6525 12.995,11.6525 7.21875,0 13.07125,-5.8525 13.07125,-13.07125 0,-0.5 -0.0537,-0.98125 -0.11,-1.46625 C 429.07,522.48793 384.49375,478.06043 328.325,471.64543"
       id="path11010"
       style="fill:#5ab02f;fill-opacity:1;fill-rule:nonzero;stroke:none" />
    <path
       d="m 332.17625,557.10143 c 9.9475,0 18.0125,8.065 18.0125,18.0125 0,9.94875 -8.065,18.0125 -18.0125,18.0125 -9.9475,0 -18.0125,-8.06375 -18.0125,-18.0125 0,-9.9475 8.065,-18.0125 18.0125,-18.0125"
       id="path11012"
       style="fill:#1f38e2;fill-opacity:1;fill-rule:nonzero;stroke:none" />
    <path
       d="m 373.13575,534.29868 c -11.59125,-11.61375 -26.6925,-19.8 -43.53125,-22.9375 -0.72125,-0.12375 -1.4625,-0.20625 -2.22,-0.20625 -7.22,0 -13.0725,5.8525 -13.0725,13.0725 0,6.31875 4.51125,11.6075 10.47375,12.825 11.55625,2.13875 21.855,7.73625 29.8675,15.7325 7.88625,7.9025 13.44375,18.0225 15.6475,29.38375 l 0.0163,0.025 c 1.0225,6.20125 6.4075,10.9325 12.89625,10.9325 7.2175,0 13.07125,-5.8525 13.07125,-13.0725 0,-0.79375 -0.0875,-1.56125 -0.22375,-2.31375 -3.15125,-16.8 -11.335,-31.86875 -22.925,-43.44125"
       id="path11014"
       style="fill:#e42831;fill-opacity:1;fill-rule:nonzero;stroke:none" />
  </g>
</svg>
